<svg id="visual" viewBox="0 0 900 600" width="900" height="600" xmlns="http://www.w3.org/2000/svg" xmlns:xlink="http://www.w3.org/1999/xlink" version="1.1"><rect x="0" y="0" width="900" height="600" fill="#001220"></rect><defs><linearGradient id="grad1_0" x1="33.3%" y1="0%" x2="100%" y2="100%"><stop offset="20%" stop-color="#fbae3c" stop-opacity="1"></stop><stop offset="80%" stop-color="#fbae3c" stop-opacity="1"></stop></linearGradient></defs><defs><linearGradient id="grad1_1" x1="33.3%" y1="0%" x2="100%" y2="100%"><stop offset="20%" stop-color="#fbae3c" stop-opacity="1"></stop><stop offset="80%" stop-color="#eb7458" stop-opacity="1"></stop></linearGradient></defs><defs><linearGradient id="grad1_2" x1="33.3%" y1="0%" x2="100%" y2="100%"><stop offset="20%" stop-color="#b84e6c" stop-opacity="1"></stop><stop offset="80%" stop-color="#eb7458" stop-opacity="1"></stop></linearGradient></defs><defs><linearGradient id="grad1_3" x1="33.3%" y1="0%" x2="100%" y2="100%"><stop offset="20%" stop-color="#b84e6c" stop-opacity="1"></stop><stop offset="80%" stop-color="#713c69" stop-opacity="1"></stop></linearGradient></defs><defs><linearGradient id="grad1_4" x1="33.3%" y1="0%" x2="100%" y2="100%"><stop offset="20%" stop-color="#2d2b4c" stop-opacity="1"></stop><stop offset="80%" stop-color="#713c69" stop-opacity="1"></stop></linearGradient></defs><defs><linearGradient id="grad1_5" x1="33.3%" y1="0%" x2="100%" y2="100%"><stop offset="20%" stop-color="#2d2b4c" stop-opacity="1"></stop><stop offset="80%" stop-color="#001220" stop-opacity="1"></stop></linearGradient></defs><defs><linearGradient id="grad2_0" x1="0%" y1="0%" x2="66.7%" y2="100%"><stop offset="20%" stop-color="#fbae3c" stop-opacity="1"></stop><stop offset="80%" stop-color="#fbae3c" stop-opacity="1"></stop></linearGradient></defs><defs><linearGradient id="grad2_1" x1="0%" y1="0%" x2="66.7%" y2="100%"><stop offset="20%" stop-color="#eb7458" stop-opacity="1"></stop><stop offset="80%" stop-color="#fbae3c" stop-opacity="1"></stop></linearGradient></defs><defs><linearGradient id="grad2_2" x1="0%" y1="0%" x2="66.7%" y2="100%"><stop offset="20%" stop-color="#eb7458" stop-opacity="1"></stop><stop offset="80%" stop-color="#b84e6c" stop-opacity="1"></stop></linearGradient></defs><defs><linearGradient id="grad2_3" x1="0%" y1="0%" x2="66.7%" y2="100%"><stop offset="20%" stop-color="#713c69" stop-opacity="1"></stop><stop offset="80%" stop-color="#b84e6c" stop-opacity="1"></stop></linearGradient></defs><defs><linearGradient id="grad2_4" x1="0%" y1="0%" x2="66.7%" y2="100%"><stop offset="20%" stop-color="#713c69" stop-opacity="1"></stop><stop offset="80%" stop-color="#2d2b4c" stop-opacity="1"></stop></linearGradient></defs><defs><linearGradient id="grad2_5" x1="0%" y1="0%" x2="66.7%" y2="100%"><stop offset="20%" stop-color="#001220" stop-opacity="1"></stop><stop offset="80%" stop-color="#2d2b4c" stop-opacity="1"></stop></linearGradient></defs><g transform="translate(900, 0)"><path d="M0 378.6C-32.7 372.7 -65.4 366.7 -95.2 355.5C-125.1 344.2 -151.9 327.5 -180 311.8C-208.1 296 -237.3 281.2 -259.5 259.5C-281.7 237.9 -297 209.4 -315.2 182C-333.5 154.6 -354.6 128.2 -365.7 98C-376.7 67.8 -377.7 33.9 -378.6 0L0 0Z" fill="#131f37"></path><path d="M0 315.5C-27.3 310.6 -54.5 305.6 -79.4 296.2C-104.2 286.8 -126.6 272.9 -150 259.8C-173.4 246.7 -197.7 234.3 -216.3 216.3C-234.8 198.2 -247.5 174.5 -262.7 151.7C-277.9 128.8 -295.5 106.8 -304.7 81.7C-313.9 56.5 -314.7 28.3 -315.5 0L0 0Z" fill="#4d345e"></path><path d="M0 252.4C-21.8 248.4 -43.6 244.5 -63.5 237C-83.4 229.5 -101.3 218.3 -120 207.8C-138.7 197.3 -158.2 187.4 -173 173C-187.8 158.6 -198 139.6 -210.2 121.3C-222.3 103 -236.4 85.4 -243.8 65.3C-251.2 45.2 -251.8 22.6 -252.4 0L0 0Z" fill="#96446e"></path><path d="M0 189.3C-16.4 186.3 -32.7 183.4 -47.6 177.7C-62.5 172.1 -76 163.8 -90 155.9C-104 148 -118.6 140.6 -129.8 129.8C-140.9 118.9 -148.5 104.7 -157.6 91C-166.7 77.3 -177.3 64.1 -182.8 49C-188.4 33.9 -188.8 17 -189.3 0L0 0Z" fill="#d55e64"></path><path d="M0 126.2C-10.9 124.2 -21.8 122.2 -31.7 118.5C-41.7 114.7 -50.6 109.2 -60 103.9C-69.4 98.7 -79.1 93.7 -86.5 86.5C-93.9 79.3 -99 69.8 -105.1 60.7C-111.2 51.5 -118.2 42.7 -121.9 32.7C-125.6 22.6 -125.9 11.3 -126.2 0L0 0Z" fill="#f88f4a"></path><path d="M0 63.1C-5.5 62.1 -10.9 61.1 -15.9 59.2C-20.8 57.4 -25.3 54.6 -30 52C-34.7 49.3 -39.5 46.9 -43.3 43.3C-47 39.6 -49.5 34.9 -52.5 30.3C-55.6 25.8 -59.1 21.4 -60.9 16.3C-62.8 11.3 -62.9 5.7 -63.1 0L0 0Z" fill="#fbae3c"></path></g><g transform="translate(0, 600)"><path d="M0 -378.6C34.2 -378.2 68.3 -377.8 98 -365.7C127.6 -353.6 152.8 -329.8 180 -311.8C207.2 -293.7 236.5 -281.5 262.3 -262.3C288.2 -243.2 310.6 -217.3 326.5 -188.5C342.4 -159.7 351.7 -128.2 359.3 -96.3C366.9 -64.4 372.8 -32.2 378.6 0L0 0Z" fill="#131f37"></path><path d="M0 -315.5C28.5 -315.2 56.9 -314.8 81.7 -304.7C106.4 -294.7 127.3 -274.8 150 -259.8C172.7 -244.8 197.1 -234.5 218.6 -218.6C240.2 -202.7 258.8 -181.1 272.1 -157.1C285.3 -133.1 293.1 -106.8 299.4 -80.2C305.8 -53.7 310.6 -26.8 315.5 0L0 0Z" fill="#4d345e"></path><path d="M0 -252.4C22.8 -252.1 45.6 -251.9 65.3 -243.8C85.1 -235.7 101.9 -219.9 120 -207.8C138.1 -195.8 157.7 -187.6 174.9 -174.9C192.1 -162.1 207.1 -144.8 217.7 -125.7C228.3 -106.5 234.5 -85.4 239.5 -64.2C244.6 -42.9 248.5 -21.5 252.4 0L0 0Z" fill="#96446e"></path><path d="M0 -189.3C17.1 -189.1 34.2 -188.9 49 -182.8C63.8 -176.8 76.4 -164.9 90 -155.9C103.6 -146.9 118.2 -140.7 131.2 -131.2C144.1 -121.6 155.3 -108.6 163.2 -94.3C171.2 -79.9 175.9 -64.1 179.7 -48.1C183.5 -32.2 186.4 -16.1 189.3 0L0 0Z" fill="#d55e64"></path><path d="M0 -126.2C11.4 -126.1 22.8 -125.9 32.7 -121.9C42.5 -117.9 50.9 -109.9 60 -103.9C69.1 -97.9 78.8 -93.8 87.4 -87.4C96.1 -81.1 103.5 -72.4 108.8 -62.8C114.1 -53.2 117.2 -42.7 119.8 -32.1C122.3 -21.5 124.3 -10.7 126.2 0L0 0Z" fill="#f88f4a"></path><path d="M0 -63.1C5.7 -63 11.4 -63 16.3 -60.9C21.3 -58.9 25.5 -55 30 -52C34.5 -49 39.4 -46.9 43.7 -43.7C48 -40.5 51.8 -36.2 54.4 -31.4C57.1 -26.6 58.6 -21.4 59.9 -16C61.2 -10.7 62.1 -5.4 63.1 0L0 0Z" fill="#fbae3c"></path></g></svg>