<svg viewBox="-0.23294661979148623 0 125.23294661979149 40.04777140278348"
  xmlns="http://www.w3.org/2000/svg" width="2500" height="1575">
  <g fill="#621ee5">
    <path d="M6.02 40.25c-.32-.34-.71-.61-1.14-.8s-.89-.28-1.36-.28c-.47-.01-.93.09-1.36.27-.43.19-.82.46-1.14.8-.33.33-.59.72-.76 1.15-.17.44-.26.9-.26 1.36-.01.47.08.93.26 1.36s.44.82.77 1.15a3.339 3.339 0 0 0 2.5 1.05 3.456 3.456 0 0 0 2.5-1.05c.34-.32.6-.71.78-1.14s.27-.89.27-1.36-.09-.93-.27-1.36c-.19-.44-.45-.83-.79-1.15zM47.87 32.13c-.05 2.24.06 4.49.32 6.72h-.12c-.28-.55-.9-1.57-1.85-3.06L23.42 0H16.5v45.69h5.32V12.66c.06-2.09-.03-4.18-.25-6.27h.2c.38 1 .87 1.96 1.45 2.86l23.42 36.44h6.55V0h-5.32zM89.26 40.67h-18.8V24.84h16.45v-4.82H70.46V4.84h17.65V0h-23.1v45.69h24.22zM93.33 0v4.84h13.1v40.85h5.32V4.84H125V0zM41.19 57.05a10.04 10.04 0 0 0"/>
  </g>
</svg>
